<svg width="20" height="21" viewBox="0 0 20 21" fill="none" xmlns="http://www.w3.org/2000/svg">
<path d="M1 16.5008V9.03468C1 8.07137 1.46259 7.16666 2.24353 6.60265L8.19239 2.30624C9.26549 1.53123 10.7197 1.55112 11.7712 2.35521L17.3223 6.60019C18.0646 7.1678 18.5 8.04886 18.5 8.98327V16.5008C18.5 18.1576 17.1569 19.5007 15.5 19.5007H13C12.4477 19.5007 12 19.053 12 18.5007V16.0008C12 15.4485 11.5523 15.0008 11 15.0008H9C8.44772 15.0008 8 15.4485 8 16.0008V18.5007C8 19.053 7.55228 19.5007 7 19.5007H4C2.34315 19.5007 1 18.1576 1 16.5008Z" stroke="#961515" stroke-width="1.5" stroke-linejoin="round"/>
</svg>
